<svg xmlns="http://www.w3.org/2000/svg" width="50" height="37" fill="none"><path fill="#1C0A46" d="m49.766 21.62-8.254-8.254a.8.8 0 0 0-1.128 0l-.747.749a.795.795 0 0 0 0 1.126l8.252 8.256a.8.8 0 0 0 1.128 0l.749-.749a.796.796 0 0 0 0-1.128m-21.388 4.882a.8.8 0 0 0-1.129 0l-.746.746a.798.798 0 0 0-.002 1.129l8.255 8.253a.793.793 0 0 0 1.127 0l.748-.748a.795.795 0 0 0 0-1.127zm0-26.269a.8.8 0 0 0-1.129 0l-.746.747a.798.798 0 0 0-.002 1.128l8.255 8.254a.795.795 0 0 0 1.127 0l.748-.749a.795.795 0 0 0 0-1.126zM15.243 13.368a.8.8 0 0 0-1.128 0l-.747.746a.798.798 0 0 0-.001 1.129l8.255 8.253a.795.795 0 0 0 1.127 0l.748-.748a.793.793 0 0 0 0-1.127zM22.75 26.5a.8.8 0 0 0-1.128 0l-8.254 8.254a.798.798 0 0 0 0 1.127l.749.748a.798.798 0 0 0 1.128 0l8.252-8.254a.796.796 0 0 0 0-1.128zm4.5-3.005a.8.8 0 0 0 1.129 0l8.252-8.253a.796.796 0 0 0 0-1.129l-.747-.746a.797.797 0 0 0-1.128 0L26.5 21.619a.8.8 0 0 0 0 1.129zM9.616 13.367a.8.8 0 0 0-1.128 0L.233 21.62a.797.797 0 0 0 0 1.127l.747.749a.8.8 0 0 0 1.13 0l8.252-8.254a.796.796 0 0 0 0-1.128zm4.489-3.017a.814.814 0 0 0 1.151 0l8.23-8.232a.812.812 0 0 0 0-1.15L22.76.244a.816.816 0 0 0-1.15 0l-8.232 8.23a.814.814 0 0 0 0 1.152z"/></svg>