<svg xmlns="http://www.w3.org/2000/svg" width="25" height="25" fill="none"><g clip-path="url(#a)"><path fill="#fff" d="M10.938 0C4.906 0 0 4.906 0 10.938c0 6.03 4.906 10.937 10.938 10.937 1.843 0 3.656-.437 5.187-1.281.123.147.259.283.406.406l3.125 3.125a3.189 3.189 0 1 0 4.5-4.5L21.031 16.5a3.117 3.117 0 0 0-.5-.406c.844-1.532 1.375-3.313 1.375-5.188C21.906 4.875 17-.03 10.97-.03zm0 3.125a7.776 7.776 0 0 1 7.812 7.813c0 2.062-.75 3.968-2.062 5.374l-.094.094a3.126 3.126 0 0 0-.407.407c-1.375 1.25-3.25 1.968-5.28 1.968a7.776 7.776 0 0 1-7.813-7.812 7.776 7.776 0 0 1 7.812-7.813z"/></g><defs><clipPath id="a"><path fill="#fff" d="M0 0h25v25H0z"/></clipPath></defs></svg>